<?xml version="1.0" encoding="iso-8859-1"?>
<!-- Generator: Adobe Illustrator 19.0.0, SVG Export Plug-In . SVG Version: 6.00 Build 0)  -->
<svg version="1.1" id="Layer_1" xmlns="http://www.w3.org/2000/svg" xmlns:xlink="http://www.w3.org/1999/xlink" x="0px" y="0px"
	 viewBox="0 0 512 512" style="enable-background:new 0 0 512 512;" xml:space="preserve">
<rect x="224" y="76" style="fill:#FF661A;" width="288" height="304"/>
<g>
	<rect x="256" y="108" style="fill:#FFFFFF;" width="40" height="16"/>
	<rect x="296" y="172" style="fill:#FFFFFF;" width="72" height="16"/>
	<rect x="296" y="204" style="fill:#FFFFFF;" width="72" height="16"/>
	<rect x="384" y="172" style="fill:#FFFFFF;" width="56" height="16"/>
</g>
<rect x="256" y="140" style="fill:#2B2B2B;" width="112" height="16"/>
<rect x="384" y="204" style="fill:#FFFFFF;" width="96" height="16"/>
<g>
	<rect x="384" y="140" style="fill:#2B2B2B;" width="56" height="16"/>
	<rect x="256" y="236" style="fill:#2B2B2B;" width="40" height="16"/>
</g>
<g>
	<rect x="296" y="300" style="fill:#FFFFFF;" width="72" height="16"/>
	<rect x="384" y="300" style="fill:#FFFFFF;" width="56" height="16"/>
	<rect x="256" y="268" style="fill:#FFFFFF;" width="112" height="16"/>
</g>
<g>
	<rect x="384" y="332" style="fill:#2B2B2B;" width="96" height="16"/>
	<rect x="384" y="268" style="fill:#2B2B2B;" width="56" height="16"/>
	<path style="fill:#2B2B2B;" d="M512,76H224V28h288V76z M240,60h256V44H240V60z"/>
</g>
<rect y="332" style="fill:#E3E3E3;" width="368" height="152"/>
<g>
	<rect x="16" y="348" style="fill:#FFFFFF;" width="48" height="24"/>
	<rect x="72" y="348" style="fill:#FFFFFF;" width="24" height="24"/>
	<rect x="104" y="348" style="fill:#FFFFFF;" width="24" height="24"/>
	<rect x="136" y="348" style="fill:#FFFFFF;" width="24" height="24"/>
	<rect x="168" y="348" style="fill:#FFFFFF;" width="24" height="24"/>
	<rect x="200" y="348" style="fill:#FFFFFF;" width="24" height="24"/>
	<rect x="232" y="348" style="fill:#FFFFFF;" width="24" height="24"/>
	<rect x="264" y="348" style="fill:#FFFFFF;" width="24" height="24"/>
	<rect x="296" y="348" style="fill:#FFFFFF;" width="56" height="24"/>
	<rect x="16" y="380" style="fill:#FFFFFF;" width="24" height="24"/>
	<rect x="112" y="380" style="fill:#FFFFFF;" width="24" height="24"/>
	<rect x="80" y="380" style="fill:#FFFFFF;" width="24" height="24"/>
	<rect x="48" y="380" style="fill:#FFFFFF;" width="24" height="24"/>
	<rect x="144" y="380" style="fill:#FFFFFF;" width="24" height="24"/>
	<rect x="176" y="380" style="fill:#FFFFFF;" width="24" height="24"/>
	<rect x="208" y="380" style="fill:#FFFFFF;" width="24" height="24"/>
	<rect x="240" y="380" style="fill:#FFFFFF;" width="24" height="24"/>
	<rect x="272" y="380" style="fill:#FFFFFF;" width="24" height="24"/>
	<rect x="304" y="380" style="fill:#FFFFFF;" width="48" height="24"/>
	<rect x="16" y="412" style="fill:#FFFFFF;" width="24" height="24"/>
	<rect x="144" y="412" style="fill:#FFFFFF;" width="24" height="24"/>
	<rect x="112" y="412" style="fill:#FFFFFF;" width="24" height="24"/>
	<rect x="80" y="412" style="fill:#FFFFFF;" width="24" height="24"/>
	<rect x="48" y="412" style="fill:#FFFFFF;" width="24" height="24"/>
	<rect x="176" y="412" style="fill:#FFFFFF;" width="24" height="24"/>
	<rect x="208" y="412" style="fill:#FFFFFF;" width="24" height="24"/>
	<rect x="240" y="412" style="fill:#FFFFFF;" width="24" height="24"/>
	<rect x="16" y="444" style="fill:#FFFFFF;" width="56" height="24"/>
	<rect x="80" y="444" style="fill:#FFFFFF;" width="24" height="24"/>
	<rect x="112" y="444" style="fill:#FFFFFF;" width="144" height="24"/>
	<rect x="264" y="444" style="fill:#FFFFFF;" width="24" height="24"/>
	<rect x="296" y="444" style="fill:#FFFFFF;" width="24" height="24"/>
	<rect x="328" y="444" style="fill:#FFFFFF;" width="24" height="24"/>
	<rect x="272" y="412" style="fill:#FFFFFF;" width="80" height="24"/>
</g>
<g>
	<path style="fill:#2B2B2B;" d="M424,484c-13.6,0-24-10.4-24-24s10.4-24,24-24s24,10.4,24,24S437.6,484,424,484z M424,452
		c-4.8,0-8,3.2-8,8s3.2,8,8,8s8-3.2,8-8S428.8,452,424,452z"/>
	<rect x="464" y="436" style="fill:#2B2B2B;" width="16" height="48"/>
	<rect x="496" y="436" style="fill:#2B2B2B;" width="16" height="48"/>
	<rect x="176" y="84" style="fill:#2B2B2B;" width="16" height="48"/>
	<rect x="144" y="84" style="fill:#2B2B2B;" width="16" height="48"/>
	<path style="fill:#2B2B2B;" d="M88,76c-13.6,0-24-10.4-24-24s10.4-24,24-24s24,10.4,24,24S101.6,76,88,76z M88,44c-4.8,0-8,3.2-8,8
		s3.2,8,8,8s8-3.2,8-8S92.8,44,88,44z"/>
	<rect x="32" y="28" style="fill:#2B2B2B;" width="16" height="48"/>
	<rect y="28" style="fill:#2B2B2B;" width="16" height="48"/>
	<rect x="80" y="220" style="fill:#2B2B2B;" width="16" height="16"/>
	<rect x="112" y="220" style="fill:#2B2B2B;" width="16" height="16"/>
	<rect x="144" y="220" style="fill:#2B2B2B;" width="16" height="16"/>
	<path style="fill:#2B2B2B;" d="M80,284h-8c-6.4,0-12.8-2.4-16.8-7.2c-4.8-4-7.2-10.4-7.2-16.8v-64c0-6.4,2.4-12.8,7.2-16.8
		c4-4.8,10.4-7.2,16.8-7.2h8v16h-8c-2.4,0-4,0.8-5.6,2.4c-1.6,1.6-2.4,3.2-2.4,5.6v64c0,2.4,0.8,4,2.4,5.6s3.2,2.4,5.6,2.4h8V284z"
		/>
	<path style="fill:#2B2B2B;" d="M168,284h-8v-16h8c2.4,0,4-0.8,5.6-2.4s2.4-3.2,2.4-5.6v-64c0-2.4-0.8-4-2.4-5.6
		c-1.6-1.6-3.2-2.4-5.6-2.4h-8v-16h8c6.4,0,12.8,2.4,16.8,7.2c4.8,4.8,7.2,10.4,7.2,16.8v64c0,6.4-2.4,12.8-7.2,16.8
		C180.8,281.6,174.4,284,168,284z"/>
</g>
<rect x="224" y="332" style="fill:#E35B17;" width="144" height="48"/>
<g>
	<rect x="232" y="348" style="fill:#FF661A;" width="24" height="24"/>
	<rect x="264" y="348" style="fill:#FF661A;" width="24" height="24"/>
	<rect x="296" y="348" style="fill:#FF661A;" width="56" height="24"/>
</g>
<g>
</g>
<g>
</g>
<g>
</g>
<g>
</g>
<g>
</g>
<g>
</g>
<g>
</g>
<g>
</g>
<g>
</g>
<g>
</g>
<g>
</g>
<g>
</g>
<g>
</g>
<g>
</g>
<g>
</g>
</svg>
