<?xml version="1.0" encoding="utf-8"?>
<!-- Generator: Adobe Illustrator 26.0.1, SVG Export Plug-In . SVG Version: 6.00 Build 0)  -->
<svg version="1.1" id="Layer_1" xmlns="http://www.w3.org/2000/svg" xmlns:xlink="http://www.w3.org/1999/xlink" x="0px" y="0px"
	 viewBox="0 0 600 600" style="enable-background:new 0 0 600 600;" xml:space="preserve">
<style type="text/css">
	.st0{fill:#FFFFFF;}
	.st1{clip-path:url(#SVGID_00000054252863901446003780000018379976577214628482_);}
	.st2{fill-rule:evenodd;clip-rule:evenodd;fill:#E94F00;}
	.st3{clip-path:url(#SVGID_00000085950934244418871570000005924965201408067212_);}
	.st4{fill-rule:evenodd;clip-rule:evenodd;fill:#6F7400;}
	.st5{clip-path:url(#SVGID_00000082333481598306703260000007249406528367036550_);}
	.st6{fill-rule:evenodd;clip-rule:evenodd;fill:#BF0010;}
	.st7{clip-path:url(#SVGID_00000145757274556598632440000000512446022532118939_);}
	.st8{fill-rule:evenodd;clip-rule:evenodd;fill:#BF0076;}
	.st9{clip-path:url(#SVGID_00000078736133875059108940000016272994430345982126_);}
	.st10{fill-rule:evenodd;clip-rule:evenodd;fill:#580E00;}
	.st11{clip-path:url(#SVGID_00000049217635544187326130000010457545827466664370_);}
	.st12{fill-rule:evenodd;clip-rule:evenodd;fill:#FF5E4A;}
	.st13{clip-path:url(#SVGID_00000093156623636986116250000008563255462486606490_);}
	.st14{fill-rule:evenodd;clip-rule:evenodd;fill:#00C93E;}
	.st15{clip-path:url(#SVGID_00000022549605508565891110000017652645274807118749_);}
	.st16{fill-rule:evenodd;clip-rule:evenodd;fill:#2DBFD3;}
	.st17{font-family:'Montserrat-Medium';}
	.st18{font-size:18px;}
	.st19{fill:#4A68A1;}
	.st20{font-size:24.3669px;}
</style>
<g>
	<g>
		<path id="SVGID_1_" class="st0" d="M300,15.3C142.8,15.3,15.3,142.8,15.3,300S142.8,584.7,300,584.7S584.7,457.2,584.7,300
			S457.2,15.3,300,15.3z M300,457.8c-87.2,0-157.8-70.7-157.8-157.8c0-87.2,70.7-157.8,157.8-157.8S457.8,212.8,457.8,300
			S387.2,457.8,300,457.8z"/>
	</g>
	<g>
		<g>
			<defs>
				<path id="SVGID_00000050650839682833513470000017265843043189161862_" d="M300,15.3C142.8,15.3,15.3,142.8,15.3,300
					S142.8,584.7,300,584.7S584.7,457.2,584.7,300S457.2,15.3,300,15.3z M300,457.8c-87.2,0-157.8-70.7-157.8-157.8
					c0-87.2,70.7-157.8,157.8-157.8S457.8,212.8,457.8,300S387.2,457.8,300,457.8z"/>
			</defs>
			<clipPath id="SVGID_00000093896034688824252470000010501152783571535549_">
				<use xlink:href="#SVGID_00000050650839682833513470000017265843043189161862_"  style="overflow:visible;"/>
			</clipPath>
			<g style="clip-path:url(#SVGID_00000093896034688824252470000010501152783571535549_);">
				<g>
					<path class="st2" d="M249.3,161c-5.2,1.7-7.3-0.8-4.5-5.6l40.1-68.6c2.8-4.7,1.2-10.9-3.6-13.7l-75.7-43.9
						c-4.8-2.8-4.3-6,1.1-7.3c0,0,48.1-11.2,100.6-9.8C359.8,13.6,402.4,31,418,36.8l22.8,85.5c1.4,5.3-1.8,10.9-7.1,12.3L364.6,154
						c-5.3,1.5-14.1,3-19.6,3.5l-38.5,3.1c-5.5,0.4-14.4,0.3-19.9-0.3l-15.8-1.8c-5.5-0.6-14.2,0.2-19.5,1.9L249.3,161z"/>
				</g>
			</g>
		</g>
	</g>
	<g>
		<g>
			<defs>
				<path id="SVGID_00000065061641885186678740000010789403364575740080_" d="M300,15.3C142.8,15.3,15.3,142.8,15.3,300
					S142.8,584.7,300,584.7S584.7,457.2,584.7,300S457.2,15.3,300,15.3z M300,457.8c-87.2,0-157.8-70.7-157.8-157.8
					c0-87.2,70.7-157.8,157.8-157.8S457.8,212.8,457.8,300S387.2,457.8,300,457.8z"/>
			</defs>
			<clipPath id="SVGID_00000052100000216976892720000012035613482772945803_">
				<use xlink:href="#SVGID_00000065061641885186678740000010789403364575740080_"  style="overflow:visible;"/>
			</clipPath>
			<g style="clip-path:url(#SVGID_00000052100000216976892720000012035613482772945803_);">
				<g>
					<path class="st4" d="M362.4,165.8c-4.9-2.5-4.5-5.7,0.8-7.1l76.8-20.2c5.3-1.4,8.5-6.9,7.1-12.2l-22.5-84.6
						c-1.4-5.3,1.3-7.3,5.9-4.4c0,0,42,26.1,78.1,64.3s53.9,80.5,60.9,95.7L525.1,274c-2.8,4.8-8.9,6.4-13.7,3.7l-62.5-35.3
						c-4.8-2.7-12.1-7.8-16.3-11.4l-29.4-25c-4.2-3.6-10.4-10-13.8-14.3l-9.9-12.4c-3.4-4.3-10.2-9.9-15.1-12.4L362.4,165.8z"/>
				</g>
			</g>
		</g>
	</g>
	<g>
		<g>
			<defs>
				<path id="SVGID_00000031917388198543745010000015036613847857760176_" d="M300,15.3C142.8,15.3,15.3,142.8,15.3,300
					S142.8,584.7,300,584.7S584.7,457.2,584.7,300S457.2,15.3,300,15.3z M300,457.8c-87.2,0-157.8-70.7-157.8-157.8
					c0-87.2,70.7-157.8,157.8-157.8S457.8,212.8,457.8,300S387.2,457.8,300,457.8z"/>
			</defs>
			<clipPath id="SVGID_00000170979221047157567800000004399735809197456545_">
				<use xlink:href="#SVGID_00000031917388198543745010000015036613847857760176_"  style="overflow:visible;"/>
			</clipPath>
			<g style="clip-path:url(#SVGID_00000170979221047157567800000004399735809197456545_);">
				<g>
					<path class="st6" d="M439,249.3c-1.7-5.2,0.8-7.3,5.6-4.5l68.6,40.1c4.7,2.8,10.9,1.2,13.7-3.6l43.9-75.7
						c2.8-4.8,6-4.3,7.3,1.1c0,0,11.2,48.1,9.8,100.6c-1.5,52.5-18.9,95-24.7,110.7l-85.5,22.8c-5.3,1.4-10.9-1.8-12.3-7.1
						L446,364.6c-1.5-5.3-3-14.1-3.5-19.6l-3.1-38.5c-0.4-5.5-0.3-14.4,0.3-19.9l1.8-15.8c0.6-5.5-0.2-14.2-1.9-19.5L439,249.3z"/>
				</g>
			</g>
		</g>
	</g>
	<g>
		<g>
			<defs>
				<path id="SVGID_00000063591673254567134010000004859178755774195592_" d="M300,15.3C142.8,15.3,15.3,142.8,15.3,300
					S142.8,584.7,300,584.7S584.7,457.2,584.7,300S457.2,15.3,300,15.3z M300,457.8c-87.2,0-157.8-70.7-157.8-157.8
					c0-87.2,70.7-157.8,157.8-157.8S457.8,212.8,457.8,300S387.2,457.8,300,457.8z"/>
			</defs>
			<clipPath id="SVGID_00000057107534529185984680000010964924550173691549_">
				<use xlink:href="#SVGID_00000063591673254567134010000004859178755774195592_"  style="overflow:visible;"/>
			</clipPath>
			<g style="clip-path:url(#SVGID_00000057107534529185984680000010964924550173691549_);">
				<g>
					<path class="st8" d="M434.2,362.4c2.5-4.9,5.7-4.5,7.1,0.8l20.2,76.8c1.4,5.3,6.9,8.5,12.2,7.1l84.6-22.5
						c5.3-1.4,7.3,1.2,4.4,5.9c0,0-26.1,42-64.3,78.1s-80.5,53.9-95.7,60.9L326,525.1c-4.8-2.8-6.4-8.9-3.7-13.7l35.3-62.5
						c2.7-4.8,7.8-12.1,11.4-16.3l25-29.4c3.6-4.2,10-10.4,14.3-13.8l12.5-9.9c4.3-3.4,9.9-10.2,12.4-15.1L434.2,362.4z"/>
				</g>
			</g>
		</g>
	</g>
	<g>
		<g>
			<defs>
				<path id="SVGID_00000041981831763307435890000012213353163565867950_" d="M300,15.3C142.8,15.3,15.3,142.8,15.3,300
					S142.8,584.7,300,584.7S584.7,457.2,584.7,300S457.2,15.3,300,15.3z M300,457.8c-87.2,0-157.8-70.7-157.8-157.8
					c0-87.2,70.7-157.8,157.8-157.8S457.8,212.8,457.8,300S387.2,457.8,300,457.8z"/>
			</defs>
			<clipPath id="SVGID_00000148627611921584444110000002287214074396560528_">
				<use xlink:href="#SVGID_00000041981831763307435890000012213353163565867950_"  style="overflow:visible;"/>
			</clipPath>
			<g style="clip-path:url(#SVGID_00000148627611921584444110000002287214074396560528_);">
				<g>
					<path class="st10" d="M350.7,439c5.2-1.7,7.3,0.8,4.5,5.6l-40.1,68.6c-2.8,4.7-1.2,10.9,3.6,13.7l75.7,43.9
						c4.8,2.8,4.3,6-1.1,7.3c0,0-48.1,11.2-100.6,9.8c-52.5-1.5-95.1-18.9-110.7-24.7l-22.8-85.5c-1.4-5.3,1.8-10.9,7.1-12.3
						l69.2-19.2c5.3-1.5,14.1-3,19.6-3.5l38.5-3.1c5.5-0.4,14.4-0.3,19.9,0.3l15.8,1.8c5.5,0.6,14.2-0.2,19.5-1.9L350.7,439z"/>
				</g>
			</g>
		</g>
	</g>
	<g>
		<g>
			<defs>
				<path id="SVGID_00000167388275668744044250000015506673469759319989_" d="M300,15.3C142.8,15.3,15.3,142.8,15.3,300
					S142.8,584.7,300,584.7S584.7,457.2,584.7,300S457.2,15.3,300,15.3z M300,457.8c-87.2,0-157.8-70.7-157.8-157.8
					c0-87.2,70.7-157.8,157.8-157.8S457.8,212.8,457.8,300S387.2,457.8,300,457.8z"/>
			</defs>
			<clipPath id="SVGID_00000006685308792027601480000008421892610379009718_">
				<use xlink:href="#SVGID_00000167388275668744044250000015506673469759319989_"  style="overflow:visible;"/>
			</clipPath>
			<g style="clip-path:url(#SVGID_00000006685308792027601480000008421892610379009718_);">
				<g>
					<path class="st12" d="M237.6,434.2c4.9,2.5,4.5,5.7-0.8,7.1L160,461.4c-5.3,1.4-8.5,6.9-7.1,12.2l22.5,84.6
						c1.4,5.3-1.2,7.3-5.9,4.4c0,0-42-26.1-78.1-64.3s-53.9-80.5-60.9-95.7L74.9,326c2.8-4.8,8.9-6.4,13.7-3.7l62.5,35.3
						c4.8,2.7,12.1,7.8,16.3,11.4l29.4,25c4.2,3.6,10.4,10,13.8,14.3l9.9,12.5c3.4,4.3,10.2,9.9,15.1,12.4L237.6,434.2z"/>
				</g>
			</g>
		</g>
	</g>
	<g>
		<g>
			<defs>
				<path id="SVGID_00000162325093326669744250000006349013041598414782_" d="M300,15.3C142.8,15.3,15.3,142.8,15.3,300
					S142.8,584.7,300,584.7S584.7,457.2,584.7,300S457.2,15.3,300,15.3z M300,457.8c-87.2,0-157.8-70.7-157.8-157.8
					c0-87.2,70.7-157.8,157.8-157.8S457.8,212.8,457.8,300S387.2,457.8,300,457.8z"/>
			</defs>
			<clipPath id="SVGID_00000100354165999396670950000002683818951344691340_">
				<use xlink:href="#SVGID_00000162325093326669744250000006349013041598414782_"  style="overflow:visible;"/>
			</clipPath>
			<g style="clip-path:url(#SVGID_00000100354165999396670950000002683818951344691340_);">
				<path class="st14" d="M161,350.7c1.7,5.2-0.8,7.3-5.6,4.5l-68.6-40.1c-4.7-2.8-10.9-1.2-13.7,3.6l-43.9,75.7
					c-2.8,4.8-6,4.3-7.3-1.1c0,0-11.2-48.1-9.8-100.6C13.6,240.2,31,197.6,36.8,182l85.5-22.8c5.3-1.4,10.9,1.8,12.3,7.1l19.2,69.2
					c1.5,5.3,3,14.1,3.5,19.6l3.1,38.5c0.4,5.5,0.3,14.4-0.3,19.9l-1.8,15.8c-0.6,5.5,0.2,14.2,1.9,19.5L161,350.7z"/>
			</g>
		</g>
	</g>
	<g>
		<g>
			<defs>
				<path id="SVGID_00000072967414084367523650000004188856488929012122_" d="M300,15.3C142.8,15.3,15.3,142.8,15.3,300
					S142.8,584.7,300,584.7S584.7,457.2,584.7,300S457.2,15.3,300,15.3z M300,457.8c-87.2,0-157.8-70.7-157.8-157.8
					c0-87.2,70.7-157.8,157.8-157.8S457.8,212.8,457.8,300S387.2,457.8,300,457.8z"/>
			</defs>
			<clipPath id="SVGID_00000030476436658768653460000009784087346325894322_">
				<use xlink:href="#SVGID_00000072967414084367523650000004188856488929012122_"  style="overflow:visible;"/>
			</clipPath>
			<g style="clip-path:url(#SVGID_00000030476436658768653460000009784087346325894322_);">
				<g>
					<path class="st16" d="M165.8,237.6c-2.5,4.9-5.7,4.5-7.1-0.8L138.6,160c-1.4-5.3-6.9-8.5-12.2-7.1l-84.6,22.5
						c-5.3,1.4-7.3-1.2-4.4-5.9c0,0,26.1-42,64.3-78.1s80.5-53.9,95.7-60.9L274,74.9c4.8,2.8,6.4,8.9,3.7,13.7l-35.3,62.5
						c-2.7,4.8-7.8,12.1-11.4,16.3l-25,29.4c-3.6,4.2-10,10.4-14.3,13.8l-12.4,9.9c-4.3,3.4-9.9,10.2-12.4,15.1L165.8,237.6z"/>
				</g>
			</g>
		</g>
	</g>
</g>
<g id="Logo">
</g>
<g id="Text">
	<text transform="matrix(1 0 0 1 311.6035 89.9819)" class="st0 st17 st18">Planning</text>
	<text transform="matrix(1 0 0 1 175.6704 294.335)" class="st19 st17 st20">System Development</text>
	<text transform="matrix(1 0 0 1 200.4024 323.575)" class="st19 st17 st20">Life Cycle (SDLC)</text>
	<text transform="matrix(1 0 0 1 413.7422 181.0928)" class="st0 st17 st18">Requirements</text>
	<text transform="matrix(1 0 0 1 440.5492 204.7638)" class="st0 st17 st18">Analysis</text>
	<text transform="matrix(1 0 0 1 472.4453 335.9961)" class="st0 st17 st18">Software</text>
	<text transform="matrix(1 0 0 1 483.4913 359.6671)" class="st0 st17 st18">Design</text>
	<text transform="matrix(1 0 0 1 379.6191 478.7168)" class="st0 st17 st18">Software</text>
	<text transform="matrix(1 0 0 1 359.2721 502.3878)" class="st0 st17 st18">Development</text>
	<text transform="matrix(1 0 0 1 202.6694 495.5156)" class="st0 st17 st18">Software</text>
	<text transform="matrix(1 0 0 1 192.4814 519.1866)" class="st0 st17 st18">Integration</text>
	<text transform="matrix(1 0 0 1 205.4804 542.8576)" class="st0 st17 st18">and Test</text>
	<text transform="matrix(1 0 0 1 89.5376 417.1943)" class="st0 st17 st18">Software</text>
	<text transform="matrix(1 0 0 1 57.5336 440.8653)" class="st0 st17 st18">Implementation</text>
	<text transform="matrix(1 0 0 1 35.5825 225.4712)" class="st0 st17 st18">Software</text>
	<text transform="matrix(1 0 0 1 26.0255 249.1422)" class="st0 st17 st18">Operations</text>
	<text transform="matrix(1 0 0 1 61.7385 272.8122)" class="st0 st17 st18">and</text>
	<text transform="matrix(1 0 0 1 18.0965 296.4832)" class="st0 st17 st18">Maintenance</text>
	<text transform="matrix(1 0 0 1 138.3862 89.9819)" class="st0 st17 st18">System</text>
	<text transform="matrix(1 0 0 1 133.7312 113.6529)" class="st0 st17 st18">Concept</text>
	<text transform="matrix(1 0 0 1 109.2222 137.3229)" class="st0 st17 st18">Development</text>
</g>
</svg>
