<?xml version="1.0"?>
<svg xmlns="http://www.w3.org/2000/svg" xmlns:xlink="http://www.w3.org/1999/xlink" xmlns:svgjs="http://svgjs.com/svgjs" version="1.1" width="512" height="512" x="0" y="0" viewBox="0 0 512 512" style="enable-background:new 0 0 512 512" xml:space="preserve" class=""><g><path xmlns="http://www.w3.org/2000/svg" d="m325.550781 69.550781h-317.574219c-4.40625 0-7.976562 3.570313-7.976562 7.976563v426.496094c0 4.40625 3.570312 7.976562 7.976562 7.976562h250.230469c.035157 0 .074219-.003906.109375-.003906.230469-.003906.457032-.011719.683594-.035156 1.359375-.132813 2.617188-.609376 3.6875-1.335938.03125-.023438.058594-.046875.089844-.070312.183594-.128907.363281-.261719.535156-.402344.0625-.054688.125-.117188.1875-.171875.136719-.121094.269531-.238281.394531-.367188.015625-.015625.027344-.027343.042969-.039062l67.34375-69.550781c.027344-.027344.046875-.0625.074219-.089844.214843-.226563.417969-.46875.605469-.722656.039062-.054688.082031-.105469.121093-.164063.195313-.28125.378907-.578125.539063-.886719.027344-.050781.046875-.101562.074218-.152344.136719-.277343.257813-.5625.363282-.859374.019531-.050782.039062-.105469.058594-.15625.109374-.332032.199218-.667969.265624-1.015626.007813-.050781.015626-.105468.023438-.160156.046875-.285156.082031-.574218.097656-.867187.003906-.09375.011719-.183594.015625-.277344 0-.066406.007813-.132813.007813-.199219v-356.945312c0-4.40625-3.570313-7.976563-7.976563-7.976563zm-309.601562 15.953125h301.628906v340.996094h-59.371094c-4.40625 0-7.976562 3.566406-7.976562 7.972656v61.578125h-234.28125zm250.230469 398.820313v-41.875h40.546874zm0 0" fill="#ffffff" data-original="#000000" class=""/><path xmlns="http://www.w3.org/2000/svg" d="m360.328125 34.777344h-317.578125c-4.402344 0-7.972656 3.570312-7.972656 7.972656 0 4.40625 3.570312 7.976562 7.972656 7.976562h309.601562v371.183594c0 4.40625 3.570313 7.976563 7.976563 7.976563 4.402344 0 7.976563-3.570313 7.976563-7.976563v-379.160156c0-4.402344-3.574219-7.972656-7.976563-7.972656zm0 0" fill="#ffffff" data-original="#000000" class=""/><path xmlns="http://www.w3.org/2000/svg" d="m395.101562 0h-317.574218c-4.40625 0-7.976563 3.570312-7.976563 7.976562s3.570313 7.972657 7.976563 7.972657h309.601562v386.839843c0 4.40625 3.570313 7.976563 7.972656 7.976563 4.40625 0 7.976563-3.570313 7.976563-7.976563v-394.8125c0-4.40625-3.570313-7.976562-7.976563-7.976562zm0 0" fill="#ffffff" data-original="#000000" class=""/><path xmlns="http://www.w3.org/2000/svg" d="m127.902344 140.691406h60.726562c4.40625 0 7.976563-3.566406 7.976563-7.972656s-3.570313-7.976562-7.976563-7.976562h-60.726562c-4.402344 0-7.976563 3.570312-7.976563 7.976562s3.574219 7.972656 7.976563 7.972656zm0 0" fill="#ffffff" data-original="#000000" class=""/><path xmlns="http://www.w3.org/2000/svg" d="m85.972656 181.175781h144.589844c4.402344 0 7.972656-3.570312 7.972656-7.972656 0-4.40625-3.570312-7.976563-7.972656-7.976563h-144.589844c-4.40625 0-7.976562 3.570313-7.976562 7.976563 0 4.402344 3.570312 7.972656 7.976562 7.972656zm0 0" fill="#ffffff" data-original="#000000" class=""/><path xmlns="http://www.w3.org/2000/svg" d="m275.382812 329.527344h-219.773437c-4.40625 0-7.976563 3.570312-7.976563 7.976562s3.570313 7.976563 7.976563 7.976563h219.773437c4.40625 0 7.976563-3.570313 7.976563-7.976563s-3.570313-7.976562-7.976563-7.976562zm0 0" fill="#ffffff" data-original="#000000" class=""/><path xmlns="http://www.w3.org/2000/svg" d="m275.382812 376.253906h-219.773437c-4.40625 0-7.976563 3.570313-7.976563 7.976563 0 4.402343 3.570313 7.972656 7.976563 7.972656h219.773437c4.40625 0 7.976563-3.570313 7.976563-7.972656 0-4.40625-3.570313-7.976563-7.976563-7.976563zm0 0" fill="#ffffff" data-original="#000000" class=""/><path xmlns="http://www.w3.org/2000/svg" d="m200.199219 422.980469h-144.589844c-4.40625 0-7.976563 3.570312-7.976563 7.972656 0 4.40625 3.570313 7.976563 7.976563 7.976563h144.589844c4.402343 0 7.972656-3.570313 7.972656-7.976563 0-4.402344-3.570313-7.972656-7.972656-7.972656zm0 0" fill="#ffffff" data-original="#000000" class=""/><path xmlns="http://www.w3.org/2000/svg" d="m54.875 298.25h110.253906c4.40625 0 7.976563-3.570312 7.976563-7.972656v-56.871094c0-4.40625-3.570313-7.976562-7.976563-7.976562h-110.253906c-4.402344 0-7.976562 3.570312-7.976562 7.976562v56.871094c0 4.402344 3.570312 7.972656 7.976562 7.972656zm7.976562-56.871094h94.300782v40.921875h-94.300782zm0 0" fill="#ffffff" data-original="#000000" class=""/><path xmlns="http://www.w3.org/2000/svg" d="m193.5625 235.605469c0 4.40625 3.574219 7.972656 7.976562 7.972656h73.84375c4.40625 0 7.976563-3.566406 7.976563-7.972656s-3.570313-7.976563-7.976563-7.976563h-73.84375c-4.402343 0-7.976562 3.570313-7.976562 7.976563zm0 0" fill="#ffffff" data-original="#000000" class=""/><path xmlns="http://www.w3.org/2000/svg" d="m275.382812 279.027344h-73.84375c-4.402343 0-7.976562 3.570312-7.976562 7.972656 0 4.40625 3.574219 7.976562 7.976562 7.976562h73.84375c4.40625 0 7.976563-3.570312 7.976563-7.976562 0-4.402344-3.570313-7.972656-7.976563-7.972656zm0 0" fill="#ffffff" data-original="#000000" class=""/></g></svg>
