<?xml version="1.0"?>
<svg xmlns="http://www.w3.org/2000/svg" xmlns:xlink="http://www.w3.org/1999/xlink" xmlns:svgjs="http://svgjs.com/svgjs" version="1.1" width="512" height="512" x="0" y="0" viewBox="0 0 512 512" style="enable-background:new 0 0 512 512" xml:space="preserve" class=""><g>
<g xmlns="http://www.w3.org/2000/svg">
	<g>
		<path d="M474.427,46.09H230.951v15.029h243.476c12.43,0,22.544,10.113,22.544,22.544v222.935H229.448V85.59l-37.573-62.622    L154.301,85.59v221.009h-25.049V0H44.086v306.599H15.029V83.663c0-9.257,5.801-17.715,14.435-21.044l-5.409-14.022    C9.667,54.147,0,68.238,0,83.663v280.548c0,20.718,16.855,37.573,37.573,37.573h140.775v55.108h-22.544    c-15.193,0-27.554,12.36-27.554,27.554V512H383.75v-27.554c0-15.194-12.361-27.554-27.554-27.554h-22.544v-55.108h140.775    c20.718,0,37.573-16.855,37.573-37.573V83.663C512,62.945,495.145,46.09,474.427,46.09z M191.875,52.18l19.749,32.914    l-19.749,11.848l-19.749-11.849L191.875,52.18z M169.331,100.943l22.544,13.526l22.544-13.526v165.577h-45.088V100.943z     M169.331,281.55h45.088v25.049h-45.088V281.55z M59.115,288.564h36.571v-15.029H59.115v-15.029h20.54v-15.029h-20.54v-15.029    h36.571v-15.029H59.115v-15.029h20.54v-15.029h-20.54v-15.029h36.571v-15.029H59.115V138.27h20.54v-15.029h-20.54v-15.029h36.571    V93.182H59.115V78.153h20.54V63.123h-20.54V48.094h36.571V33.065H59.115V15.029h55.108v291.569H59.115V288.564z M356.196,471.922    c6.906,0,12.524,5.618,12.524,12.524v12.524H143.28v-12.524c0-6.906,5.618-12.524,12.524-12.524H356.196z M193.378,456.892    v-55.108h125.245v55.108H193.378z M496.971,364.211c0,12.431-10.114,22.544-22.544,22.544H37.573    c-12.43,0-22.544-10.113-22.544-22.544v-42.583h481.941V364.211z" fill="#ce2128" data-original="#000000" class=""/>
	</g>
</g>
<g xmlns="http://www.w3.org/2000/svg">
	<g>
		<path d="M306.599,76.149v85.166h175.342V76.149H306.599z M466.912,146.286H321.628V91.178h145.284V146.286z" fill="#ce2128" data-original="#000000" class=""/>
	</g>
</g>
<g xmlns="http://www.w3.org/2000/svg">
	<g>
		<path d="M306.599,176.344v55.108h80.157v-55.108H306.599z M371.726,216.423h-50.098v-25.049h50.098V216.423z" fill="#ce2128" data-original="#000000" class=""/>
	</g>
</g>
<g xmlns="http://www.w3.org/2000/svg">
	<g>
		<path d="M401.785,176.344v55.108h80.157v-55.108H401.785z M466.912,216.423h-50.098v-25.049h50.098V216.423z" fill="#ce2128" data-original="#000000" class=""/>
	</g>
</g>
<g xmlns="http://www.w3.org/2000/svg">
	<g>
		<polygon points="290.067,91.178 290.067,76.149 244.978,76.149 244.978,91.178 260.008,91.178 260.008,276.54 244.978,276.54     244.978,291.569 290.067,291.569 290.067,276.54 275.037,276.54 275.037,91.178   " fill="#ce2128" data-original="#000000" class=""/>
	</g>
</g>
<g xmlns="http://www.w3.org/2000/svg">
	<g>
		<rect x="248.485" y="346.677" width="15.029" height="15.029" fill="#ce2128" data-original="#000000" class=""/>
	</g>
</g>
<g xmlns="http://www.w3.org/2000/svg">
	<g>
		<rect x="278.544" y="346.677" width="15.029" height="15.029" fill="#ce2128" data-original="#000000" class=""/>
	</g>
</g>
<g xmlns="http://www.w3.org/2000/svg">
	<g>
		<rect x="218.427" y="346.677" width="15.029" height="15.029" fill="#ce2128" data-original="#000000" class=""/>
	</g>
</g>
<g xmlns="http://www.w3.org/2000/svg">
	<g>
		<rect x="184.36" y="195.883" width="15.029" height="15.029" fill="#ce2128" data-original="#000000" class=""/>
	</g>
</g>
<g xmlns="http://www.w3.org/2000/svg">
	<g>
		<rect x="184.36" y="225.941" width="15.029" height="25.049" fill="#ce2128" data-original="#000000" class=""/>
	</g>
</g>
<g xmlns="http://www.w3.org/2000/svg">
	<g>
		<rect x="184.36" y="130.755" width="15.029" height="50.098" fill="#ce2128" data-original="#000000" class=""/>
	</g>
</g>
<g xmlns="http://www.w3.org/2000/svg">
	<g>
		<rect x="364.211" y="251.491" width="15.029" height="15.029" fill="#ce2128" data-original="#000000" class=""/>
	</g>
</g>
<g xmlns="http://www.w3.org/2000/svg">
	<g>
		<rect x="314.114" y="251.491" width="35.068" height="15.029" fill="#ce2128" data-original="#000000" class=""/>
	</g>
</g>
<g xmlns="http://www.w3.org/2000/svg">
	<g>
		<rect x="409.299" y="251.491" width="35.068" height="15.029" fill="#ce2128" data-original="#000000" class=""/>
	</g>
</g>
<g xmlns="http://www.w3.org/2000/svg">
	<g>
		<rect x="459.397" y="251.491" width="15.029" height="15.029" fill="#ce2128" data-original="#000000" class=""/>
	</g>
</g>
<g xmlns="http://www.w3.org/2000/svg">
</g>
<g xmlns="http://www.w3.org/2000/svg">
</g>
<g xmlns="http://www.w3.org/2000/svg">
</g>
<g xmlns="http://www.w3.org/2000/svg">
</g>
<g xmlns="http://www.w3.org/2000/svg">
</g>
<g xmlns="http://www.w3.org/2000/svg">
</g>
<g xmlns="http://www.w3.org/2000/svg">
</g>
<g xmlns="http://www.w3.org/2000/svg">
</g>
<g xmlns="http://www.w3.org/2000/svg">
</g>
<g xmlns="http://www.w3.org/2000/svg">
</g>
<g xmlns="http://www.w3.org/2000/svg">
</g>
<g xmlns="http://www.w3.org/2000/svg">
</g>
<g xmlns="http://www.w3.org/2000/svg">
</g>
<g xmlns="http://www.w3.org/2000/svg">
</g>
<g xmlns="http://www.w3.org/2000/svg">
</g>
</g></svg>
