<?xml version="1.0"?>
<svg xmlns="http://www.w3.org/2000/svg" xmlns:xlink="http://www.w3.org/1999/xlink" xmlns:svgjs="http://svgjs.com/svgjs" version="1.1" width="512" height="512" x="0" y="0" viewBox="0 0 512.002 512.002" style="enable-background:new 0 0 512 512" xml:space="preserve" class=""><g><g xmlns="http://www.w3.org/2000/svg"><path d="m106.089 0h-83.089c-12.407 0-22.5 10.094-22.5 22.5v467c0 12.406 10.093 22.5 22.5 22.5h83.089c12.407 0 22.5-10.094 22.5-22.5v-379.691c0-4.143-3.358-7.5-7.5-7.5s-7.5 3.357-7.5 7.5v379.691c0 4.136-3.365 7.5-7.5 7.5h-83.089c-4.135 0-7.5-3.364-7.5-7.5v-16h34.908c4.142 0 7.5-3.357 7.5-7.5s-3.358-7.5-7.5-7.5h-34.908v-15h24.811c4.142 0 7.5-3.357 7.5-7.5s-3.358-7.5-7.5-7.5h-24.811v-15h45.005c4.142 0 7.5-3.357 7.5-7.5s-3.358-7.5-7.5-7.5h-45.005v-15h24.811c4.142 0 7.5-3.357 7.5-7.5s-3.358-7.5-7.5-7.5h-24.811v-15h34.908c4.142 0 7.5-3.357 7.5-7.5s-3.358-7.5-7.5-7.5h-34.908v-15h24.811c4.142 0 7.5-3.357 7.5-7.5s-3.358-7.5-7.5-7.5h-24.811v-15h45.005c4.142 0 7.5-3.357 7.5-7.5s-3.358-7.5-7.5-7.5h-45.005v-15h24.811c4.142 0 7.5-3.357 7.5-7.5s-3.358-7.5-7.5-7.5h-24.811v-15h34.908c4.142 0 7.5-3.357 7.5-7.5s-3.358-7.5-7.5-7.5h-34.908v-15h24.811c4.142 0 7.5-3.357 7.5-7.5s-3.358-7.5-7.5-7.5h-24.811v-15h45.005c4.142 0 7.5-3.357 7.5-7.5s-3.358-7.5-7.5-7.5h-45.005v-15h24.811c4.142 0 7.5-3.357 7.5-7.5s-3.358-7.5-7.5-7.5h-24.811v-15h34.908c4.142 0 7.5-3.357 7.5-7.5s-3.358-7.5-7.5-7.5h-34.908v-15h24.811c4.142 0 7.5-3.357 7.5-7.5s-3.358-7.5-7.5-7.5h-24.811v-15h45.005c4.142 0 7.5-3.357 7.5-7.5s-3.358-7.5-7.5-7.5h-45.005v-16c0-4.136 3.365-7.5 7.5-7.5h83.089c4.135 0 7.5 3.364 7.5 7.5v51.904c0 4.143 3.358 7.5 7.5 7.5s7.5-3.357 7.5-7.5v-51.904c0-12.406-10.093-22.5-22.5-22.5z" fill="#ce2128" data-original="#000000" class=""/><path d="m511.303 502.791-9.994-42.703c1.889-1.287 3.6-2.865 5.06-4.716 4.323-5.482 5.87-12.521 4.243-19.311l-26.825-111.939c-.966-4.027-5.005-6.511-9.042-5.546-4.028.966-6.511 5.014-5.546 9.042l26.826 111.939c.55 2.295.026 4.674-1.435 6.526-1.461 1.854-3.653 2.916-6.014 2.916-3.559 0-6.621-2.418-7.448-5.879l-64.408-269.571c5.259-.814 10.09-3.065 14.021-6.414l30.341 126.613c.825 3.44 3.898 5.754 7.288 5.754.578 0 1.166-.067 1.754-.208 4.027-.966 6.511-5.014 5.546-9.042l-34.202-142.724 12.493-39.281c3.199-10.059 1.46-20.716-4.772-29.237-6.101-8.344-15.46-13.195-25.761-13.409v-48.101c0-9.649-7.851-17.5-17.5-17.5h-16.12c-9.649 0-17.5 7.851-17.5 17.5v48.101c-10.301.214-19.66 5.066-25.761 13.409-6.232 8.521-7.972 19.179-4.772 29.237l12.492 39.279-39.505 164.855-140.148-160.391c-4.846-5.546-12.434-7.457-19.328-4.87-6.895 2.588-11.351 9.02-11.351 16.384v330.996c0 9.649 7.851 17.5 17.5 17.5h289.219c6.953 0 13.059-3.933 15.934-10.263 2.876-6.331 1.819-13.517-2.756-18.752l-111.646-127.773h23.181v3.035c0 12.37 10.064 22.434 22.435 22.434h.132c12.37 0 22.434-10.063 22.434-22.434v-3.035h24.334l21.837 91.396c2.309 9.659 10.504 16.564 20.263 17.317l9.896 42.284c.81 3.459 3.892 5.793 7.296 5.793.566 0 1.142-.064 1.716-.199 4.032-.945 6.537-4.979 5.593-9.012zm-121.495-487.791h16.12c1.379 0 2.5 1.121 2.5 2.5v48.08h-21.12v-48.08c0-1.379 1.121-2.5 2.5-2.5zm-31.154 72.864c3.386-4.629 8.62-7.284 14.361-7.284h49.704c5.741 0 10.976 2.655 14.36 7.284 3.376 4.616 4.319 10.389 2.586 15.836l-14.59 45.875c-1.772 5.573-6.898 9.317-12.756 9.317h-28.905c-5.857 0-10.984-3.744-12.756-9.317l-14.59-45.875c-1.732-5.447-.789-11.22 2.586-15.836zm6.34 79.271c3.931 3.349 8.761 5.6 14.021 6.414l-9.667 40.461c-.962 4.029 1.523 8.075 5.552 9.038.586.14 1.172.207 1.749.207 3.392 0 6.466-2.316 7.289-5.759l10.418-43.604h7.024l32.555 136.256h-13.568v-3.034c0-12.37-10.063-22.434-22.434-22.434h-.132c-12.37 0-22.435 10.063-22.435 22.434v3.034h-13.567l13.977-58.499c.962-4.029-1.523-8.075-5.552-9.038-4.028-.959-8.075 1.523-9.038 5.552l-22.017 92.153-12.303-14.08zm87.938 328.399c-.249.547-.875 1.466-2.276 1.466h-289.22c-1.378 0-2.5-1.121-2.5-2.5v-15.967h12.691c4.142 0 7.5-3.357 7.5-7.5s-3.358-7.5-7.5-7.5h-12.691v-15.524h22.616c4.142 0 7.5-3.357 7.5-7.5s-3.358-7.5-7.5-7.5h-22.616v-15.538l12.615.001c4.142 0 7.5-3.357 7.5-7.5 0-4.142-3.357-7.5-7.5-7.5l-12.616-.001v-15.531h12.578c4.142 0 7.5-3.357 7.5-7.5s-3.358-7.5-7.5-7.5h-12.578v-15.524h22.502c4.142 0 7.5-3.357 7.5-7.5s-3.358-7.5-7.5-7.5h-22.502v-15.537h12.501c4.142 0 7.5-3.357 7.5-7.5s-3.358-7.5-7.5-7.5h-12.501v-15.531h12.463c4.142 0 7.5-3.357 7.5-7.5s-3.358-7.5-7.5-7.5h-12.463v-15.524h22.388c4.142 0 7.5-3.357 7.5-7.5s-3.358-7.5-7.5-7.5h-22.388v-16.049h12.729c4.142 0 7.5-3.357 7.5-7.5s-3.358-7.5-7.5-7.5h-12.729v-55.271c0-1.431.882-2.063 1.622-2.34.281-.105.612-.187.965-.187.576 0 1.212.214 1.796.882l289.22 330.995c.922 1.056.643 2.132.394 2.68zm-98.314-155.322 3.599-15.063h17.15v15.063zm50.749 18.035c0 4.099-3.335 7.434-7.434 7.434h-.132c-4.1 0-7.435-3.335-7.435-7.434v-51.133c0-4.099 3.335-7.434 7.435-7.434h.132c4.099 0 7.434 3.335 7.434 7.434zm15-18.035v-15.063h17.151l3.599 15.063z" fill="#ce2128" data-original="#000000" class=""/><path d="m214.709 447.229h39.132c4.142 0 7.5-3.357 7.5-7.5s-3.358-7.5-7.5-7.5h-34.632v-119.361l104.296 119.361h-34.771c-4.143 0-7.5 3.357-7.5 7.5s3.357 7.5 7.5 7.5h44.678c4.108 0 7.861-2.417 9.561-6.158 1.699-3.74 1.051-8.156-1.653-11.25l-118.705-135.851c-2.908-3.326-7.459-4.473-11.597-2.921-4.137 1.553-6.81 5.411-6.81 9.83v135.851c.001 5.79 4.711 10.499 10.501 10.499z" fill="#ce2128" data-original="#000000" class=""/><path d="m397.867 142.268c12.431 0 22.544-10.107 22.544-22.531s-10.113-22.531-22.544-22.531-22.543 10.107-22.543 22.531 10.113 22.531 22.543 22.531zm0-30.063c4.16 0 7.544 3.379 7.544 7.531s-3.384 7.531-7.544 7.531c-4.159 0-7.543-3.379-7.543-7.531s3.384-7.531 7.543-7.531z" fill="#ce2128" data-original="#000000" class=""/></g></g></svg>
